<?xml version="1.0" standalone="no"?>
<!DOCTYPE svg PUBLIC "-//W3C//DTD SVG 20010904//EN"
 "http://www.w3.org/TR/2001/REC-SVG-20010904/DTD/svg10.dtd">
<svg version="1.0" xmlns="http://www.w3.org/2000/svg"
 width="573.000000pt" height="573.000000pt" viewBox="0 0 573.000000 573.000000"
 preserveAspectRatio="xMidYMid meet">
<metadata>
Created by potrace 1.11, written by Peter Selinger 2001-2013
</metadata>
<g transform="translate(0.000000,573.000000) scale(0.100000,-0.100000)"
fill="#000000" stroke="none">
<path d="M2540 5714 c-632 -75 -1206 -352 -1655 -799 -136 -135 -177 -181
-275 -311 -286 -377 -486 -854 -550 -1309 -6 -44 -13 -93 -16 -110 -3 -16 -7
-129 -10 -250 -13 -506 83 -933 313 -1387 135 -268 303 -499 528 -723 440
-441 970 -705 1605 -802 163 -25 599 -25 755 0 203 32 265 45 414 88 629 183
1194 602 1565 1161 255 385 418 842 465 1308 10 98 7 534 -4 605 -3 22 -13 87
-21 145 -20 133 -81 375 -129 505 -163 451 -429 851 -775 1164 -440 398 -981
644 -1570 715 -149 17 -493 18 -640 0z"/>
</g>
</svg>
